<svg xmlns="http://www.w3.org/2000/svg" width="90" height="60" viewBox="0 0 90 60"><path fill="#BAC1C9" d="M0 0h90v60H0z"/><path fill="#FFF" d="M7 7h76v46H7z"/><path fill="#BAC1C9" d="M48.665 29.61c-.791.456-1.286 1.38-1.286 1.769 0 .295-.229.644-.536.644h-3.216c-.295 0-.482-.456-.482-.751v-.603c0-1.621 1.608-3.015 2.787-3.55 1.032-.469 1.46-.911 1.46-1.769 0-.75-.978-1.42-2.063-1.42-.603 0-1.152.188-1.447.388-.321.228-.643.549-1.434 1.541a.554.554 0 0 1-.415.214.627.627 0 0 1-.335-.107L39.5 24.292a.528.528 0 0 1-.134-.71c1.447-2.398 3.483-3.563 6.216-3.563 2.868 0 6.083 2.291 6.083 5.359.001 2.544-1.727 3.522-3 4.232zm-1.232 7.021a.537.537 0 0 1-.536.536H43.68a.538.538 0 0 1-.536-.536v-3.216c0-.294.241-.535.536-.535h3.216c.295 0 .536.241.536.535l.001 3.216z"/></svg>